<svg xmlns="http://www.w3.org/2000/svg" width="31" height="23" fill="none"><path fill="#FFF8D8" d="M14.947 22.146c0 .57-.958.854-2.872.854a6.5 6.5 0 0 1-2.341-.427c-.71-.285-1.826-1.245-3.351-2.882a72.665 72.665 0 0 1-4.043-4.696l-1.808-2.24A1.75 1.75 0 0 1 0 11.472c0-.533.213-1.067.638-1.6.461-.534 1.1-1.3 1.915-2.295.851-1.032 2.11-2.437 3.777-4.216C7.996 1.583 9.13.605 9.734.427 10.23.142 11.224 0 12.713 0 14.238 0 15 .285 15 .854c0 .356-.301.783-.904 1.28-.213.214-.514.499-.905.854-.354.32-1.01.961-1.968 1.922-.922.924-1.737 1.76-2.446 2.508-1.88 2.027-2.82 3.362-2.82 4.002 0 .605.674 1.69 2.022 3.255a65.986 65.986 0 0 0 4.042 4.216l2.022 1.921c.602.498.904.943.904 1.334Z"/><path fill="#FFF8D8" d="M22.947 22.146c0 .57-.958.854-2.872.854a6.5 6.5 0 0 1-2.341-.427c-.71-.285-1.826-1.245-3.351-2.882a72.67 72.67 0 0 1-4.043-4.696l-1.808-2.24A1.75 1.75 0 0 1 8 11.472c0-.533.213-1.067.638-1.6.461-.534 1.1-1.3 1.915-2.295.851-1.032 2.11-2.437 3.777-4.216C15.996 1.583 17.13.605 17.734.427 18.23.142 19.224 0 20.713 0 22.238 0 23 .285 23 .854c0 .356-.301.783-.904 1.28-.213.214-.514.499-.904.854-.355.32-1.011.961-1.969 1.922-.922.924-1.737 1.76-2.446 2.508-1.88 2.027-2.82 3.362-2.82 4.002 0 .605.674 1.69 2.022 3.255a65.98 65.98 0 0 0 4.042 4.216l2.022 1.921c.602.498.904.943.904 1.334Z"/><path fill="#FFF8D8" d="M30.947 22.146c0 .57-.958.854-2.872.854a6.5 6.5 0 0 1-2.341-.427c-.71-.285-1.826-1.245-3.351-2.882a72.67 72.67 0 0 1-4.043-4.696l-1.808-2.24A1.75 1.75 0 0 1 16 11.472c0-.533.213-1.067.638-1.6.461-.534 1.1-1.3 1.915-2.295.851-1.032 2.11-2.437 3.777-4.216C23.997 1.583 25.13.605 25.734.427 26.23.142 27.224 0 28.713 0 30.238 0 31 .285 31 .854c0 .356-.301.783-.904 1.28-.213.214-.514.499-.904.854-.355.32-1.011.961-1.969 1.922-.922.924-1.737 1.76-2.446 2.508-1.88 2.027-2.82 3.362-2.82 4.002 0 .605.674 1.69 2.022 3.255a65.98 65.98 0 0 0 4.042 4.216l2.022 1.921c.602.498.904.943.904 1.334Z"/></svg>